#N canvas -8 -8 2560 1392 10;
#X obj 10 10 import mrpeach;
#X obj 240 280 udpreceive;
#X obj 240 320 unpackOSC;
#X obj 300 620 makenote;
#X msg 280 250 port 9000;
#X obj 180 350 print;
#X obj 360 50 pgmout 1;
#X msg 360 20 100;
#X obj 490 0 vsl 15 128 0 127 0 0 empty empty empty 0 -9 0 10 #fcfcfc
#000000 #000000 7200 1;
#X floatatom 459 158 5 0 0 0 - - -, f 5;
#N canvas 1047 278 825 793 inst 1;
#X obj 80 -60 unpack f f f f f;
#X floatatom 560 60 5 0 0 0 - - -, f 5;
#X floatatom 70 200 5 0 0 0 - - -, f 5;
#X floatatom 190 200 5 0 0 0 - - -, f 5;
#X floatatom 560 200 5 0 0 0 - - -, f 5;
#X floatatom 70 50 5 0 0 0 - - -, f 5;
#X floatatom 190 50 5 0 0 0 - - -, f 5;
#X obj 210 -210 bng 15 250 50 0 empty empty empty 17 7 0 10 #fcfcfc
#000000 #000000;
#X obj 70 130 change;
#X obj 190 130 change;
#X obj 560 120 change;
#X obj 65 -128 inlet;
#X floatatom 310 60 5 0 0 0 - - -, f 5;
#X obj 310 120 change;
#X floatatom 430 60 5 0 0 0 - - -, f 5;
#X obj 430 120 change;
#X obj 310 90 i;
#X obj 80 270 outlet;
#X obj 170 270 outlet;
#X obj 270 260 outlet;
#X obj 360 260 outlet;
#X obj 460 270 outlet;
#X obj 430 90 scalex 0 1 0 100;
#X floatatom 320 190 5 0 0 0 - - -, f 5;
#X floatatom 440 190 5 0 0 0 - - -, f 5;
#X connect 0 0 5 0;
#X connect 0 1 6 0;
#X connect 0 2 12 0;
#X connect 0 3 14 0;
#X connect 0 4 1 0;
#X connect 1 0 10 0;
#X connect 2 0 17 0;
#X connect 3 0 18 0;
#X connect 4 0 21 0;
#X connect 5 0 8 0;
#X connect 6 0 9 0;
#X connect 8 0 2 0;
#X connect 9 0 3 0;
#X connect 10 0 4 0;
#X connect 11 0 0 0;
#X connect 12 0 16 0;
#X connect 13 0 23 0;
#X connect 14 0 22 0;
#X connect 15 0 24 0;
#X connect 16 0 13 0;
#X connect 22 0 15 0;
#X connect 23 0 19 0;
#X connect 24 0 20 0;
#X restore 240 480 pd inst;
#N canvas 1047 278 825 793 inst 0;
#X obj 80 -60 unpack f f f f f;
#X floatatom 560 60 5 0 0 0 - - -, f 5;
#X floatatom 70 200 5 0 0 0 - - -, f 5;
#X floatatom 190 200 5 0 0 0 - - -, f 5;
#X floatatom 560 200 5 0 0 0 - - -, f 5;
#X floatatom 70 50 5 0 0 0 - - -, f 5;
#X floatatom 190 50 5 0 0 0 - - -, f 5;
#X obj 210 -210 bng 15 250 50 0 empty empty empty 17 7 0 10 #fcfcfc
#000000 #000000;
#X obj 70 130 change;
#X obj 190 130 change;
#X obj 560 120 change;
#X obj 65 -128 inlet;
#X floatatom 310 60 5 0 0 0 - - -, f 5;
#X obj 310 120 change;
#X floatatom 430 60 5 0 0 0 - - -, f 5;
#X obj 430 120 change;
#X obj 310 90 i;
#X obj 80 270 outlet;
#X obj 170 270 outlet;
#X obj 270 260 outlet;
#X obj 360 260 outlet;
#X obj 460 270 outlet;
#X obj 430 90 scalex 0 1 0 100;
#X floatatom 320 190 5 0 0 0 - - -, f 5;
#X floatatom 440 190 5 0 0 0 - - -, f 5;
#X connect 0 0 5 0;
#X connect 0 1 6 0;
#X connect 0 2 12 0;
#X connect 0 3 14 0;
#X connect 0 4 1 0;
#X connect 1 0 10 0;
#X connect 2 0 17 0;
#X connect 3 0 18 0;
#X connect 4 0 21 0;
#X connect 5 0 8 0;
#X connect 6 0 9 0;
#X connect 8 0 2 0;
#X connect 9 0 3 0;
#X connect 10 0 4 0;
#X connect 11 0 0 0;
#X connect 12 0 16 0;
#X connect 13 0 23 0;
#X connect 14 0 22 0;
#X connect 15 0 24 0;
#X connect 16 0 13 0;
#X connect 22 0 15 0;
#X connect 23 0 19 0;
#X connect 24 0 20 0;
#X restore 370 480 pd inst;
#X obj 240 350 routeOSC /chess/pawn/black /chess/pawn/white;
#X obj 310 680 noteout 1;
#X obj 110 560 scalex 0 1 20 60;
#X obj 220 560 scalex 0 1 10 127;
#X obj 340 570 scalex 0 1 200 1000;
#X floatatom 112 631 5 0 0 0 - - -, f 5;
#X obj 110 600 i;
#X obj 90 680 bng 15 250 50 0 empty empty empty 17 7 0 10 #fcfcfc #000000
#000000;
#X obj 120 660 change;
#X connect 1 0 2 0;
#X connect 2 0 12 0;
#X connect 3 0 13 0;
#X connect 3 1 13 1;
#X connect 4 0 1 0;
#X connect 7 0 6 0;
#X connect 8 0 6 0;
#X connect 8 0 9 0;
#X connect 10 0 14 0;
#X connect 10 1 16 0;
#X connect 10 4 15 0;
#X connect 12 0 5 0;
#X connect 12 0 10 0;
#X connect 12 1 11 0;
#X connect 14 0 18 0;
#X connect 15 0 3 1;
#X connect 16 0 3 2;
#X connect 17 0 20 0;
#X connect 18 0 17 0;
#X connect 20 0 19 0;
#X connect 20 0 3 0;
