#N canvas 154 811 594 443 10;
#X obj 10 10 import mrpeach;
#X obj 60 90 udpreceive;
#X obj 60 130 unpackOSC;
#X obj 340 160 makenote;
#X obj 350 220 noteout;
#X msg 100 60 port 9000;
#X obj 20 160 print;
#X obj 60 160 routeOSC /aruco/1;
#X obj 180 230 change;
#X obj 60 200 unpack f f f f f;
#X floatatom 180 260 5 0 0 0 - - -, f 5;
#X obj 300 390 pack f f f;
#X obj 50 300 scalex 0 1 10 127;
#X floatatom 230 340 5 0 0 0 - - -, f 5;
#X obj 170 300 scalex 0 1 10 127;
#X floatatom 350 340 5 0 0 0 - - -, f 5;
#X floatatom 480 350 5 0 0 0 - - -, f 5;
#X obj 50 240 change;
#X floatatom 50 270 5 0 0 0 - - -, f 5;
#X obj 100 240 change;
#X floatatom 100 270 5 0 0 0 - - -, f 5;
#X obj 310 300 scalex 0 1 10 2000;
#X obj 240 40 pgmout 1;
#X msg 320 80 100;
#X obj 220 70 vsl 15 128 0 127 0 0 empty empty empty 0 -9 0 10 #fcfcfc
#000000 #000000 10200 1;
#X floatatom 239 238 5 0 0 0 - - -, f 5;
#X connect 1 0 2 0;
#X connect 2 0 6 0;
#X connect 2 0 7 0;
#X connect 3 0 4 0;
#X connect 3 1 4 1;
#X connect 5 0 1 0;
#X connect 7 0 9 0;
#X connect 8 0 10 0;
#X connect 9 0 17 0;
#X connect 9 1 19 0;
#X connect 9 4 8 0;
#X connect 10 0 21 0;
#X connect 11 0 3 0;
#X connect 12 0 13 0;
#X connect 13 0 11 0;
#X connect 14 0 15 0;
#X connect 15 0 11 1;
#X connect 16 0 11 2;
#X connect 17 0 18 0;
#X connect 18 0 12 0;
#X connect 19 0 20 0;
#X connect 20 0 14 0;
#X connect 21 0 16 0;
#X connect 23 0 22 0;
#X connect 24 0 22 0;
#X connect 24 0 25 0;
